<svg width="51" height="51" viewBox="0 0 51 51" fill="none" xmlns="http://www.w3.org/2000/svg">
<g id="Clipboard" clip-path="url(#clip0_165_249)">
<g id="Group">
<g id="Group_2">
<path id="Vector" d="M40.3117 6.6213H35.6613C35.0562 4.91491 33.4266 3.68919 31.5153 3.68919H29.7981C29.193 1.9826 27.5626 0.75708 25.6511 0.75708C23.7397 0.75708 22.1092 1.9826 21.5041 3.68919H19.7869C17.8757 3.68919 16.2461 4.91491 15.6409 6.6213H10.9906C8.56542 6.6213 6.59241 8.59432 6.59241 11.0195V46.4003C6.59241 48.8254 8.56542 50.7984 10.9906 50.7984H40.3117C42.7368 50.7984 44.7098 48.8254 44.7098 46.4003V11.0195C44.7098 8.59432 42.7368 6.6213 40.3117 6.6213ZM18.3208 8.08736C18.3208 7.27897 18.9785 6.6213 19.7869 6.6213H22.719C23.5287 6.6213 24.1851 5.9649 24.1851 5.15524C24.1851 4.34686 24.8427 3.68919 25.6511 3.68919C26.4595 3.68919 27.1172 4.34686 27.1172 5.15524C27.1172 5.9649 27.7736 6.6213 28.5832 6.6213H31.5153C32.3237 6.6213 32.9814 7.27897 32.9814 8.08736V9.55341H18.3208V8.08736ZM41.7777 46.4003C41.7777 47.2086 41.1201 47.8663 40.3117 47.8663H10.9906C10.1822 47.8663 9.52452 47.2086 9.52452 46.4003V11.0195C9.52452 10.2111 10.1822 9.55341 10.9906 9.55341H15.3887V11.0195C15.3887 11.8291 16.0451 12.4855 16.8548 12.4855H34.4475C35.2571 12.4855 35.9135 11.8291 35.9135 11.0195V9.55341H40.3117C41.1201 9.55341 41.7777 10.2111 41.7777 11.0195V46.4003Z" fill="#B32079"/>
</g>
</g>
<g id="Group_3">
<g id="Group_4">
<path id="Vector_2" d="M23.7557 26.3049C23.1833 25.7324 22.2549 25.7324 21.6824 26.3049L16.8549 31.1324L14.9594 29.2369C14.3869 28.6644 13.4586 28.6644 12.8861 29.2369C12.3135 29.8095 12.3135 30.7377 12.8861 31.3102L15.8183 34.2424C16.1045 34.5287 16.4797 34.6718 16.8549 34.6718C17.2301 34.6718 17.6053 34.5287 17.8915 34.2424L23.7557 28.3782C24.3282 27.8056 24.3282 26.8774 23.7557 26.3049Z" fill="#B32079"/>
</g>
</g>
<g id="Group_5">
<g id="Group_6">
<path id="Vector_3" d="M23.7557 16.0424C23.1833 15.4699 22.2549 15.4699 21.6824 16.0424L16.8549 20.87L14.9594 18.9745C14.3869 18.4019 13.4586 18.4019 12.8861 18.9745C12.3135 19.547 12.3135 20.4752 12.8861 21.0478L15.8183 23.98C16.1045 24.2662 16.4797 24.4093 16.8549 24.4093C17.2301 24.4093 17.6053 24.2662 17.8915 23.98L23.7557 18.1157C24.3282 17.5432 24.3282 16.615 23.7557 16.0424Z" fill="#B32079"/>
</g>
</g>
<g id="Group_7">
<g id="Group_8">
<path id="Vector_4" d="M23.7557 36.5673C23.1833 35.9948 22.2549 35.9948 21.6824 36.5673L16.8549 41.395L14.9594 39.4996C14.3869 38.927 13.4586 38.927 12.8861 39.4996C12.3135 40.0721 12.3135 41.0003 12.8861 41.5728L15.8183 44.5049C16.1045 44.7912 16.4797 44.9343 16.8549 44.9343C17.2301 44.9343 17.6053 44.7912 17.8915 44.5049L23.7557 38.6406C24.3282 38.0681 24.3282 37.1399 23.7557 36.5673Z" fill="#B32079"/>
</g>
</g>
<g id="Group_9">
<g id="Group_10">
<path id="Vector_5" d="M37.3796 18.5452H28.5832C27.7736 18.5452 27.1172 19.2016 27.1172 20.0112C27.1172 20.8209 27.7736 21.4773 28.5832 21.4773H37.3796C38.1892 21.4773 38.8456 20.8209 38.8456 20.0112C38.8456 19.2016 38.1892 18.5452 37.3796 18.5452Z" fill="#B32079"/>
</g>
</g>
<g id="Group_11">
<g id="Group_12">
<path id="Vector_6" d="M37.3796 39.0701H28.5832C27.7736 39.0701 27.1172 39.7265 27.1172 40.5361C27.1172 41.3458 27.7736 42.0022 28.5832 42.0022H37.3796C38.1892 42.0022 38.8456 41.3458 38.8456 40.5361C38.8456 39.7265 38.1892 39.0701 37.3796 39.0701Z" fill="#B32079"/>
</g>
</g>
<g id="Group_13">
<g id="Group_14">
<path id="Vector_7" d="M37.3796 28.8076H28.5832C27.7736 28.8076 27.1172 29.464 27.1172 30.2737C27.1172 31.0833 27.7736 31.7397 28.5832 31.7397H37.3796C38.1892 31.7397 38.8456 31.0833 38.8456 30.2737C38.8456 29.464 38.1892 28.8076 37.3796 28.8076Z" fill="#B32079"/>
</g>
</g>
</g>
<defs>
<clipPath id="clip0_165_249">
<rect width="50.0413" height="50.0413" fill="white" transform="translate(0.630493 0.75708)"/>
</clipPath>
</defs>
</svg>
