<svg width="111" height="157" viewBox="0 0 111 157" fill="none" xmlns="http://www.w3.org/2000/svg">
<g id="Group 2">
<path id="Vector" d="M7.73523 32.1507V75.408L40.0354 32.1507H7.73523Z" fill="#6F4591"/>
<path id="Vector_2" d="M40.0354 35.658V32.1507L7.73523 75.408L40.0218 83.6597V35.658H40.0354Z" fill="#995DCA"/>
<path id="Vector_3" d="M22.118 90.8919C28.5753 87.3845 34.5569 84.9783 40.0354 83.6597L7.74878 75.4079L22.118 90.8919Z" fill="#CA93F7"/>
<path id="Vector_4" d="M101.074 0H54.4047L101.074 29.8532V0Z" fill="#E552AB"/>
<path id="Vector_5" d="M7.73523 0V29.8532L54.4047 0H7.73523Z" fill="#E653AC"/>
<path id="Vector_6" d="M40.0354 29.8532H101.074L54.4047 0L7.73523 29.8532H40.0354Z" fill="#B53683"/>
<path id="Vector_7" d="M94.209 67.2241C92.5641 65.8511 90.8647 64.6276 89.1247 63.4585L75.8158 103.44H110.345C110.305 88.2546 104.935 76.1828 94.209 67.2105V67.2241Z" fill="#3DC6D1"/>
<path id="Vector_8" d="M89.1111 63.4585L42.3329 83.1975C44.7663 82.7489 47.1045 82.4906 49.3204 82.4906C57.1371 82.4906 63.5129 84.3666 68.4477 88.1323C73.2057 91.762 75.6527 96.887 75.8294 103.453L89.1383 63.4721C89.1383 63.4721 89.1247 63.4721 89.1111 63.4585Z" fill="#64D1DA"/>
<path id="Vector_9" d="M55.7369 53.7385C50.7886 53.7385 46.3432 54.2279 42.3329 55.1659V83.1975L89.1111 63.4585C79.4591 57.0148 68.3525 53.7521 55.7369 53.7521V53.7385Z" fill="#91E5EB"/>
<path id="Vector_10" d="M23.4367 112.792C21.2208 110.876 19.4535 109.258 18.1349 107.926L0 133.13L40.0218 122.499C38.5536 121.901 37.0718 121.207 35.6036 120.419C29.7037 117.251 25.6526 114.709 23.4367 112.792Z" fill="#E14873"/>
<path id="Vector_11" d="M40.0218 155.37V122.499L0 133.13C11.1474 145.446 24.497 152.855 40.0218 155.37Z" fill="#C01D4A"/>
<path id="Vector_12" d="M89.1383 145.079C90.6881 143.951 92.1971 142.741 93.6652 141.436C104.269 131.96 109.815 120.065 110.318 105.764H75.8022L89.1519 145.093L89.1383 145.079Z" fill="#68CBF2"/>
<path id="Vector_13" d="M42.3192 155.696C45.5955 156.118 48.9533 156.349 52.4062 156.349C66.6259 156.349 78.8609 152.583 89.1246 145.079L42.3192 123.342V155.696Z" fill="#22A2D4"/>
<path id="Vector_14" d="M69.005 119.862C64.4373 123.396 59.2035 125.163 53.3035 125.163C49.6467 125.163 45.9898 124.552 42.3329 123.328L89.1383 145.065L75.7886 105.737C75.4623 111.882 73.2057 116.585 69.005 119.848V119.862Z" fill="#34B2E3"/>
</g>
</svg>
