<svg width="44" height="51" viewBox="0 0 44 51" fill="none" xmlns="http://www.w3.org/2000/svg">
<g id="Group">
<path id="Vector" d="M41.8335 28.2812C42.7472 27.2446 43.3033 25.8857 43.3033 24.3985C43.3033 21.6639 41.4268 19.3593 38.8937 18.705V0.488525H0.677002V50.5299H38.8937V36.7921L41.8335 37.8701V28.2812ZM40.3636 24.3985C40.3636 26.0194 39.0448 27.3382 37.4238 27.3382C35.8029 27.3382 34.4841 26.0194 34.4841 24.3985C34.4841 22.7775 35.8029 21.4587 37.4238 21.4587C39.0448 21.4587 40.3636 22.7775 40.3636 24.3985ZM3.61675 47.5901V3.42827H35.954V18.705C33.4209 19.3593 31.5443 21.6638 31.5443 24.3985C31.5443 25.8857 32.1004 27.2446 33.0142 28.2812V37.87L35.954 36.792V47.5901H3.61675ZM37.4238 33.122L35.954 33.6609V30.0919C36.914 30.34 37.9333 30.34 38.8937 30.0919V33.6609L37.4238 33.122Z" fill="#B32079"/>
<path id="Vector_2" d="M6.55652 29.8862H9.49627V32.826H6.55652V29.8862Z" fill="#B32079"/>
<path id="Vector_3" d="M12.4359 29.8862H28.6045V32.826H12.4359V29.8862Z" fill="#B32079"/>
<path id="Vector_4" d="M6.55652 35.7656H9.49627V38.7054H6.55652V35.7656Z" fill="#B32079"/>
<path id="Vector_5" d="M12.4359 35.7656H22.725V38.7054H12.4359V35.7656Z" fill="#B32079"/>
<path id="Vector_6" d="M6.55652 41.6453H9.49627V44.585H6.55652V41.6453Z" fill="#B32079"/>
<path id="Vector_7" d="M12.4359 41.6453H22.725V44.585H12.4359V41.6453Z" fill="#B32079"/>
<path id="Vector_8" d="M8.91724 12.3665L10.0752 15.0685L12.4359 14.0567V24.0066H27.1347V14.0567L29.4954 15.0685L30.6534 12.3665L19.7854 7.70874L8.91724 12.3665ZM24.195 21.0669H21.2553V18.1271H18.3155V21.0669H15.3758V12.7968L19.7854 10.907L24.195 12.7969V21.0669Z" fill="#B32079"/>
</g>
</svg>
