<svg width="47" height="46" viewBox="0 0 47 46" fill="none" xmlns="http://www.w3.org/2000/svg">
<g id="Group">
<g id="Group_2">
<path id="Vector" d="M26.0747 44.3723H2.88517C2.26024 44.3723 1.75184 43.8639 1.75184 43.2389V12.7176C1.75184 12.3479 1.45218 12.0483 1.08256 12.0483C0.712932 12.0483 0.413269 12.3479 0.413269 12.7176V43.2389C0.413269 44.602 1.52215 45.7108 2.88517 45.7108H26.0747C26.4443 45.7108 26.7439 45.4113 26.7439 45.0416C26.7439 44.6718 26.4443 44.3723 26.0747 44.3723Z" fill="#B32079"/>
<path id="Vector_2" d="M32.9987 26.3931C32.4346 26.3931 31.9044 26.6128 31.5056 27.0116L29.5566 28.9605L29.01 28.4139C28.1867 27.5907 26.8471 27.5906 26.0237 28.414C25.2005 29.2374 25.2005 30.5769 26.0237 31.4002L28.0635 33.4399C28.4623 33.8388 28.9926 34.0585 29.5566 34.0585C30.1206 34.0585 30.6509 33.8388 31.0497 33.44L34.4918 29.9979C34.8906 29.599 35.1102 29.0688 35.1102 28.5048C35.1102 27.9407 34.8906 27.4105 34.4918 27.0118C34.093 26.6128 33.5628 26.3931 32.9987 26.3931ZM33.5453 29.0513L30.1032 32.4934C29.9572 32.6394 29.763 32.7198 29.5566 32.7198C29.3502 32.7198 29.156 32.6394 29.01 32.4933L26.9703 30.4536C26.6689 30.1522 26.6689 29.6618 26.9703 29.3604C27.1209 29.2098 27.3189 29.1344 27.5169 29.1344C27.7148 29.1344 27.9128 29.2098 28.0635 29.3604L29.0834 30.3803C29.3447 30.6416 29.7685 30.6416 30.0298 30.3803L32.4521 27.958C32.5981 27.812 32.7923 27.7316 32.9987 27.7316C33.2051 27.7316 33.3993 27.812 33.5453 27.9581C33.6913 28.1041 33.7717 28.2982 33.7717 28.5047C33.7717 28.7112 33.6914 28.9054 33.5453 29.0513Z" fill="#B32079"/>
<path id="Vector_3" d="M30.2578 21.2632C25.5146 21.2632 21.6557 25.122 21.6557 29.8653C21.6557 34.6086 25.5145 38.4675 30.2578 38.4675C35.001 38.4675 38.8599 34.6086 38.8599 29.8653C38.8599 25.122 35.0009 21.2632 30.2578 21.2632ZM30.2578 37.1288C26.2527 37.1288 22.9943 33.8703 22.9943 29.8652C22.9943 25.8601 26.2527 22.6017 30.2578 22.6017C34.2629 22.6017 37.5213 25.8601 37.5213 29.8652C37.5213 33.8703 34.2629 37.1288 30.2578 37.1288Z" fill="#B32079"/>
<path id="Vector_4" d="M45.9075 40.1231L43.3578 37.5735C43.0952 37.3109 42.746 37.1662 42.3746 37.1662C42.0446 37.1662 41.7325 37.281 41.4827 37.4906L39.9752 35.9831C41.095 34.2107 41.7442 32.1128 41.7442 29.8657C41.7442 27.9982 41.286 26.145 40.4189 24.5062C40.246 24.1794 39.8409 24.0548 39.5143 24.2276C39.1876 24.4005 39.0629 24.8055 39.2357 25.1322C40.001 26.5788 40.4055 28.2157 40.4055 29.8657C40.4055 35.461 35.8535 40.013 30.2582 40.013C24.6626 40.013 20.1101 35.461 20.1101 29.8657C20.1101 24.2699 24.6626 19.7174 30.2582 19.7174C33.0097 19.7174 35.5844 20.7999 37.508 22.7655C37.7665 23.0295 38.1903 23.0342 38.4544 22.7757C38.7186 22.5171 38.7232 22.0933 38.4647 21.8292C37.7238 21.0722 36.8974 20.4312 36.007 19.9144V11.5771C36.007 10.7722 35.6937 10.0156 35.1248 9.44674L26.5815 0.902606C26.0118 0.333979 25.2551 0.020752 24.4507 0.020752H2.88536C1.52233 0.020752 0.413452 1.12963 0.413452 2.49266V9.59425C0.413452 9.96396 0.713115 10.2635 1.08274 10.2635C1.45237 10.2635 1.75203 9.96396 1.75203 9.59425V2.49266C1.75203 1.86772 2.26042 1.35933 2.88536 1.35933H24.4507C24.5532 1.35933 24.654 1.36959 24.7527 1.38744V8.26219C24.7527 9.92362 26.1043 11.2753 27.7657 11.2753H34.6395C34.6579 11.3746 34.6685 11.4755 34.6685 11.5771V19.2516C33.2907 18.6792 31.799 18.3789 30.2583 18.3789C23.9246 18.3789 18.7716 23.5319 18.7716 29.8657C18.7716 36.1991 23.9246 41.3516 30.2583 41.3516C31.8201 41.3516 33.3098 41.0378 34.6685 40.4706V43.2389C34.6685 43.8638 34.1601 44.3722 33.5352 44.3722H29.1982C28.8286 44.3722 28.5289 44.6718 28.5289 45.0415C28.5289 45.4112 28.8286 45.7108 29.1982 45.7108H33.5352C34.8981 45.7108 36.0071 44.6019 36.0071 43.2389V39.8063C36.1748 39.7089 36.3396 39.6073 36.5017 39.5019L37.9823 40.9825L37.9661 40.9987C37.7035 41.2612 37.5588 41.6104 37.5588 41.9819C37.5588 42.3534 37.7035 42.7025 37.966 42.9652L40.5158 45.5148C40.6464 45.6455 40.8177 45.7108 40.989 45.7108C41.1602 45.7108 41.3316 45.6455 41.4622 45.5148C41.7236 45.2534 41.7236 44.8297 41.4622 44.5683L38.9126 42.0187C38.9088 42.015 38.8974 42.0035 38.8974 41.982C38.8974 41.9606 38.9088 41.9491 38.9126 41.9454L42.3378 38.5201C42.3416 38.5162 42.353 38.5048 42.3745 38.5048C42.396 38.5048 42.4074 38.5162 42.4112 38.5201L44.9609 41.0697C45.2223 41.331 45.6461 41.331 45.9074 41.0697C46.1688 40.8082 46.1688 40.3845 45.9075 40.1231ZM26.0913 8.26227V2.30543L33.7219 9.93683H27.7657C26.8425 9.93674 26.0913 9.18553 26.0913 8.26227ZM37.5916 38.6989C38.1739 38.2146 38.7074 37.6738 39.1844 37.0853L40.532 38.4329L38.9287 40.036L37.5916 38.6989Z" fill="#B32079"/>
<path id="Vector_5" d="M23.2064 6.45925V5.19724C23.2064 4.33118 22.5018 3.62646 21.6357 3.62646H4.86875C4.0026 3.62646 3.29797 4.33109 3.29797 5.19724V6.45925C3.29797 7.32531 4.0026 8.03002 4.86875 8.03002H21.6357C22.5018 8.03002 23.2064 7.3254 23.2064 6.45925ZM4.63655 6.45925V5.19724C4.63655 5.06918 4.74069 4.96504 4.86875 4.96504H21.6357C21.7638 4.96504 21.8679 5.06918 21.8679 5.19724V6.45925C21.8679 6.58731 21.7638 6.69145 21.6357 6.69145H4.86875C4.74069 6.69145 4.63655 6.58731 4.63655 6.45925Z" fill="#B32079"/>
<path id="Vector_6" d="M3.29794 20.6003C3.29794 21.6219 4.12911 22.4531 5.1508 22.4531H10.8995C11.9212 22.4531 12.7524 21.6219 12.7524 20.6003V19.2476C12.7524 17.4054 11.6926 15.8065 10.1507 15.0271C10.7744 14.4525 11.167 13.6307 11.167 12.7177C11.167 10.9854 9.75755 9.57593 8.02517 9.57593C6.29269 9.57593 4.88326 10.9854 4.88326 12.7177C4.88326 13.6306 5.27555 14.4527 5.89915 15.0272C4.35756 15.8067 3.29785 17.4055 3.29785 19.2476L3.29794 20.6003ZM8.02526 10.9145C9.01955 10.9145 9.82849 11.7234 9.82849 12.7177C9.82849 13.7121 9.01955 14.5211 8.02526 14.5211C7.03087 14.5211 6.22193 13.7121 6.22193 12.7177C6.22193 11.7234 7.03087 10.9145 8.02526 10.9145ZM4.63652 19.2476C4.63652 17.3796 6.15669 15.8597 8.02526 15.8596C9.89364 15.8599 11.4139 17.3796 11.4139 19.2476V20.6003C11.4139 20.8839 11.1832 21.1145 10.8996 21.1145H5.15089C4.86729 21.1145 4.63661 20.8839 4.63661 20.6003L4.63652 19.2476Z" fill="#B32079"/>
<path id="Vector_7" d="M3.29797 26.8321C3.29797 27.5988 3.92175 28.2225 4.68849 28.2225H6.13085C6.89749 28.2225 7.52127 27.5988 7.52127 26.8321V25.3897C7.52127 24.623 6.89749 23.9993 6.13085 23.9993H4.68849C3.92175 23.9993 3.29797 24.623 3.29797 25.3897V26.8321ZM4.63655 25.3897C4.63655 25.3611 4.65984 25.3378 4.68849 25.3378H6.13085C6.1594 25.3378 6.18269 25.3611 6.18269 25.3897V26.8321C6.18269 26.8606 6.1594 26.8839 6.13085 26.8839H4.68849C4.65984 26.8839 4.63655 26.8606 4.63655 26.8321V25.3897Z" fill="#B32079"/>
<path id="Vector_8" d="M16.0467 23.9993H9.73655C9.36692 23.9993 9.06726 24.2988 9.06726 24.6686C9.06726 25.0383 9.36692 25.3378 9.73655 25.3378H16.0467C16.4163 25.3378 16.716 25.0383 16.716 24.6686C16.716 24.2988 16.4163 23.9993 16.0467 23.9993Z" fill="#B32079"/>
<path id="Vector_9" d="M16.0467 26.8838H9.73655C9.36692 26.8838 9.06726 27.1834 9.06726 27.5531C9.06726 27.9228 9.36692 28.2224 9.73655 28.2224H16.0467C16.4163 28.2224 16.716 27.9228 16.716 27.5531C16.716 27.1834 16.4163 26.8838 16.0467 26.8838Z" fill="#B32079"/>
<path id="Vector_10" d="M3.29797 33.7732C3.29797 34.54 3.92175 35.1636 4.68849 35.1636H6.13085C6.89749 35.1636 7.52127 34.54 7.52127 33.7732V32.3309C7.52127 31.5642 6.89749 30.9404 6.13085 30.9404H4.68849C3.92175 30.9404 3.29797 31.5642 3.29797 32.3309V33.7732ZM4.63655 32.3309C4.63655 32.3022 4.65984 32.2789 4.68849 32.2789H6.13085C6.1594 32.2789 6.18269 32.3022 6.18269 32.3309V33.7731C6.18269 33.8017 6.1594 33.825 6.13085 33.825H4.68849C4.65984 33.825 4.63655 33.8017 4.63655 33.7731V32.3309Z" fill="#B32079"/>
<path id="Vector_11" d="M16.0467 30.9404H9.73655C9.36692 30.9404 9.06726 31.24 9.06726 31.6097C9.06726 31.9794 9.36692 32.279 9.73655 32.279H16.0467C16.4163 32.279 16.716 31.9794 16.716 31.6097C16.716 31.24 16.4163 30.9404 16.0467 30.9404Z" fill="#B32079"/>
<path id="Vector_12" d="M16.0467 33.825H9.73655C9.36692 33.825 9.06726 34.1245 9.06726 34.4942C9.06726 34.864 9.36692 35.1635 9.73655 35.1635H16.0467C16.4163 35.1635 16.716 34.864 16.716 34.4942C16.716 34.1245 16.4163 33.825 16.0467 33.825Z" fill="#B32079"/>
<path id="Vector_13" d="M3.29797 40.7145C3.29797 41.4813 3.92175 42.105 4.68849 42.105H6.13085C6.89749 42.105 7.52127 41.4813 7.52127 40.7145V39.2723C7.52127 38.5055 6.89749 37.8818 6.13085 37.8818H4.68849C3.92175 37.8818 3.29797 38.5055 3.29797 39.2723V40.7145ZM4.63655 39.2723C4.63655 39.2437 4.65984 39.2204 4.68849 39.2204H6.13085C6.1594 39.2204 6.18269 39.2437 6.18269 39.2723V40.7145C6.18269 40.7432 6.1594 40.7665 6.13085 40.7665H4.68849C4.65984 40.7665 4.63655 40.7432 4.63655 40.7145V39.2723Z" fill="#B32079"/>
<path id="Vector_14" d="M16.0467 37.8818H9.73655C9.36692 37.8818 9.06726 38.1814 9.06726 38.5511C9.06726 38.9208 9.36692 39.2204 9.73655 39.2204H16.0467C16.4163 39.2204 16.716 38.9208 16.716 38.5511C16.716 38.1814 16.4163 37.8818 16.0467 37.8818Z" fill="#B32079"/>
<path id="Vector_15" d="M16.0467 40.7664H9.73655C9.36692 40.7664 9.06726 41.0659 9.06726 41.4356C9.06726 41.8054 9.36692 42.1049 9.73655 42.1049H16.0467C16.4163 42.1049 16.716 41.8054 16.716 41.4356C16.716 41.0659 16.4163 40.7664 16.0467 40.7664Z" fill="#B32079"/>
</g>
</g>
</svg>
