<svg width="57" height="52" viewBox="0 0 57 52" fill="none" xmlns="http://www.w3.org/2000/svg">
<g id="Group">
<path id="Vector" d="M18.6761 17.9904C18.4356 17.9054 18.1894 17.8162 17.9439 17.7233V13.805C18.5613 13.9529 18.9291 14.2651 18.961 14.293C19.2977 14.5978 19.8178 14.5751 20.1262 14.2405C20.4365 13.904 20.4154 13.3798 20.0789 13.0695C20.0318 13.026 19.2399 12.3129 17.9439 12.1184V11.3179C17.9439 10.8602 17.5729 10.4893 17.1153 10.4893C16.6577 10.4893 16.2866 10.8602 16.2866 11.3179V12.1818C16.1637 12.2089 16.0389 12.24 15.9113 12.2785C14.7259 12.6355 13.8402 13.65 13.5997 14.9259C13.3805 16.0892 13.7532 17.2112 14.5725 17.8537C15.0066 18.1942 15.5467 18.506 16.2866 18.8353V23.8041C15.6473 23.7569 15.2029 23.6001 14.4766 23.125C14.0935 22.8745 13.58 22.9817 13.3295 23.3649C13.0789 23.7478 13.1864 24.2614 13.5694 24.5119C14.6288 25.2049 15.3523 25.4115 16.2866 25.4641V26.3603C16.2866 26.818 16.6577 27.1889 17.1153 27.1889C17.5729 27.1889 17.9439 26.818 17.9439 26.3603V25.3983C19.8031 25.0335 20.889 23.5004 21.1297 22.0684C21.4391 20.2274 20.476 18.6267 18.6761 17.9904ZM15.5952 16.5496C15.2648 16.2904 15.1241 15.7858 15.2284 15.2328C15.3218 14.7373 15.6489 14.1418 16.2866 13.901V16.9915C16.0264 16.8503 15.791 16.7032 15.5952 16.5496ZM19.4954 21.7938C19.3679 22.5524 18.8395 23.3565 17.9439 23.6769V19.4886C18.0037 19.5101 18.0623 19.5313 18.1238 19.553C19.6549 20.0942 19.5607 21.4049 19.4954 21.7938Z" fill="#B32079"/>
<path id="Vector_2" d="M55.8018 15.2889C56.2595 15.2889 56.6305 14.918 56.6305 14.4603V11.72C56.6305 9.43539 54.7719 7.57681 52.4873 7.57681H34.317V4.25672C34.317 1.97211 32.4584 0.113525 30.1738 0.113525H4.20521C1.9206 0.113525 0.0620117 1.97211 0.0620117 4.25672V24.6075C0.0620117 25.0652 0.433021 25.4361 0.890651 25.4361C1.34828 25.4361 1.71929 25.0652 1.71929 24.6075V4.25672C1.71929 2.88604 2.83442 1.77081 4.20521 1.77081H30.1738C31.5446 1.77081 32.6597 2.88604 32.6597 4.25672V7.57681H27.6238C26.4321 7.57681 25.357 8.08327 24.6004 8.89136C22.4684 7.30303 19.8606 6.4334 17.1894 6.4334C10.3489 6.4334 4.7836 11.9985 4.7836 18.8391C4.7836 25.6797 10.3489 31.2451 17.1894 31.2451C19.4336 31.2451 21.5818 30.6569 23.4805 29.5342V35.9167H12.3644C11.9059 35.9167 11.4787 36.1433 11.2216 36.5224L7.35283 42.225V37.2977C7.35283 36.5361 6.73334 35.9166 5.97176 35.9166H4.20521C2.83442 35.9166 1.71929 34.8014 1.71929 33.4307V28.475C1.71929 28.0173 1.34828 27.6464 0.890651 27.6464C0.433021 27.6464 0.0620117 28.0173 0.0620117 28.475V33.4307C0.0620117 35.7153 1.9206 37.5739 4.20521 37.5739H5.69555V42.6107C5.69555 43.2907 6.1323 43.882 6.78239 44.0816C6.93364 44.1281 7.08722 44.1505 7.23881 44.1505C7.73831 44.1505 8.21472 43.9064 8.50773 43.4746L12.5108 37.5739H23.4805V40.894C23.4805 43.1786 25.3391 45.0372 27.6237 45.0372H44.1963L48.1848 50.9162C48.4778 51.348 48.9541 51.5922 49.4537 51.5922C49.6052 51.5922 49.7589 51.5697 49.91 51.5232C50.5601 51.3235 50.9968 50.7324 50.9968 50.0523V45.0372H52.4873C54.7719 45.0372 56.6305 43.1786 56.6305 40.894V18.3277C56.6305 17.87 56.2595 17.4991 55.8018 17.4991C55.3442 17.4991 54.9732 17.87 54.9732 18.3277V40.894C54.9732 42.2647 53.8581 43.3799 52.4873 43.3799H50.7207C49.9592 43.3799 49.3397 43.9994 49.3397 44.761V49.6664L45.4857 43.9857C45.2284 43.6063 44.8012 43.3799 44.3428 43.3799H27.6237C26.2529 43.3799 25.1378 42.2647 25.1378 40.894V11.72C25.1378 10.3493 26.2529 9.23409 27.6237 9.23409H52.4873C53.8581 9.23409 54.9732 10.3493 54.9732 11.72V14.4603C54.9732 14.9179 55.3442 15.2889 55.8018 15.2889ZM17.1894 29.5878C11.2627 29.5878 6.44088 24.766 6.44088 18.8392C6.44088 12.9125 11.2627 8.09079 17.1894 8.09079C19.5536 8.09079 21.8599 8.877 23.728 10.3097C23.568 10.7501 23.4805 11.225 23.4805 11.72V27.5528C21.6423 28.8838 19.4737 29.5878 17.1894 29.5878Z" fill="#B32079"/>
<path id="Vector_3" d="M29.3358 26.3189C29.3358 32.2296 34.1446 37.0384 40.0554 37.0384C45.9663 37.0384 50.775 32.2296 50.775 26.3189C50.775 20.4081 45.9663 15.5994 40.0554 15.5994C34.1446 15.5994 29.3358 20.4081 29.3358 26.3189ZM49.1178 26.3189C49.1178 31.3159 45.0525 35.3811 40.0554 35.3811C35.0584 35.3811 30.9931 31.3158 30.9931 26.3189C30.9931 21.3219 35.0584 17.2566 40.0554 17.2566C45.0525 17.2566 49.1178 21.3218 49.1178 26.3189Z" fill="#B32079"/>
<path id="Vector_4" d="M36.1154 26.1769C35.8003 25.8451 35.2759 25.8316 34.9439 26.1466C34.612 26.4618 34.5984 26.9862 34.9135 27.3181L37.9378 30.5034C38.0944 30.6683 38.3117 30.7615 38.5387 30.7615C38.5424 30.7615 38.546 30.7615 38.5497 30.7614C38.7807 30.7584 39 30.659 39.1546 30.4874L45.2123 23.7591C45.5184 23.4189 45.491 22.895 45.1509 22.5887C44.8108 22.2826 44.2869 22.3102 43.9806 22.6501L38.5225 28.7125L36.1154 26.1769Z" fill="#B32079"/>
</g>
</svg>
