<svg width="50" height="50" viewBox="0 0 50 50" fill="none" xmlns="http://www.w3.org/2000/svg">
<path id="Vector" d="M29.0434 24.5217C28.032 24.2184 27.4576 23.1525 27.7608 22.1411C27.9872 21.3859 28.1018 20.599 28.1018 19.8019C28.1018 15.3209 24.4562 11.6749 19.9748 11.6749C15.4937 11.6749 11.8477 15.3209 11.8477 19.8019C11.8477 24.283 15.4937 27.929 19.9748 27.929C20.7341 27.929 21.4844 27.8248 22.2056 27.6197C23.2207 27.3299 24.2792 27.9193 24.5683 28.9351C24.8577 29.9507 24.2687 31.0087 23.2529 31.2978C22.191 31.6 21.0881 31.7535 19.9748 31.7535C13.385 31.7535 8.02324 26.3921 8.02324 19.8019C8.02324 13.2118 13.385 7.8504 19.9748 7.8504C26.5649 7.8504 31.9263 13.2118 31.9263 19.8019C31.9263 20.9713 31.7575 22.1276 31.4243 23.2391C31.1211 24.2509 30.0551 24.8253 29.0434 24.5217ZM25.7055 40.5244C24.8992 39.842 23.6928 39.9425 23.0105 40.7485C21.8359 42.1364 20.8461 43.4088 19.9748 44.6548C17.9292 41.7304 15.6069 39.187 13.3503 36.7156C8.44341 31.3423 4.20585 26.7013 4.19912 19.7833C4.20921 11.0949 11.286 4.02591 19.9748 4.02591C28.6635 4.02591 35.7407 11.0949 35.7508 19.7792C35.7501 20.3338 35.722 20.8873 35.6671 21.4247C35.5603 22.4753 36.3252 23.4139 37.3758 23.5211C38.4261 23.6287 39.365 22.8634 39.4718 21.8124C39.5398 21.1483 39.5745 20.4656 39.5753 19.7788C39.5693 14.5481 37.5275 9.63155 33.827 5.93479C30.1257 2.23766 25.2066 0.201416 19.9748 0.201416C14.7434 0.201416 9.82419 2.23766 6.12295 5.93479C2.42208 9.63155 0.38061 14.5481 0.374634 19.7829C0.378369 23.5936 1.43683 27.1689 3.61014 30.7129C5.4925 33.7819 7.93771 36.4598 10.5263 39.2945C13.0642 42.074 15.689 44.9483 17.785 48.2641C18.1354 48.8188 18.7456 49.1549 19.4011 49.1549H20.5485C21.2043 49.1549 21.8146 48.8188 22.1649 48.2645C23.1815 46.6563 24.3778 45.0529 25.9296 43.2195C26.612 42.4131 26.5115 41.2064 25.7055 40.5244ZM48.6954 48.6634C48.3298 48.9928 47.8723 49.1549 47.4162 49.1549C46.893 49.1549 46.3724 48.9416 45.9948 48.5226L41.1865 43.1859C39.945 43.8813 38.515 44.2787 36.9938 44.2787C32.2486 44.2787 28.3887 40.4183 28.3887 35.6736C28.3887 30.9288 32.2486 27.0685 36.9938 27.0685C41.7385 27.0685 45.5989 30.9288 45.5989 35.6736C45.5989 37.5156 45.0166 39.2239 44.0272 40.6252L48.8362 45.9627C49.5429 46.7474 49.4801 47.9564 48.6954 48.6634ZM36.9938 40.4542C39.6298 40.4542 41.7744 38.3096 41.7744 35.6736C41.7744 33.0375 39.6298 30.893 36.9938 30.893C34.3577 30.893 32.2131 33.0375 32.2131 35.6736C32.2131 38.3096 34.3577 40.4542 36.9938 40.4542Z" fill="#B32079"/>
</svg>
