<svg width="44" height="44" viewBox="0 0 44 44" fill="none" xmlns="http://www.w3.org/2000/svg">
<g id="Location" clip-path="url(#clip0_165_244)">
<g id="Group">
<g id="Group_2">
<g id="Group_3">
<path id="Vector" d="M1.20106 20.9602L6.46183 19.0932C7.34672 18.7792 8.31823 19.242 8.63217 20.1266C8.94612 21.0113 8.48344 21.983 7.5988 22.2969L3.46931 23.7624V39.8951L9.92841 37.6678V28.0053C9.92841 27.0665 10.6894 26.3055 11.6282 26.3055C12.567 26.3055 13.3279 27.0665 13.3279 28.0053V37.6546L20.127 39.9209V36.1601C20.127 35.2214 20.888 34.4604 21.8268 34.4604C22.7655 34.4604 23.5265 35.2214 23.5265 36.1601V39.9209L30.3256 37.6546V28.0053C30.3256 27.0665 31.0866 26.3055 32.0253 26.3055C32.9641 26.3055 33.7251 27.0665 33.7251 28.0053V37.6678L40.1842 39.8951V23.7625L36.0547 22.297C35.17 21.9831 34.7073 21.0114 35.0213 20.1267C35.3353 19.242 36.3068 18.7793 37.1917 19.0933L42.4525 20.9602C43.1306 21.2008 43.5837 21.8424 43.5837 22.562V42.2793C43.5837 42.8287 43.3182 43.3444 42.8707 43.6633C42.4233 43.9823 41.8493 44.0652 41.3299 43.8862L32.0161 40.6745L22.3643 43.8918C22.09 43.9838 21.8183 43.9798 21.8268 43.979C21.6475 43.979 21.4402 43.9424 21.2892 43.8918L11.6374 40.6745L2.32367 43.8862C1.80413 44.0652 1.23029 43.9824 0.782829 43.6633C0.335453 43.3444 0.0697823 42.8287 0.0697823 42.2793V22.562C0.0697823 21.8424 0.52285 21.2008 1.20106 20.9602ZM16.7275 12.3634C16.7275 9.55169 19.015 7.26414 21.8268 7.26414C24.6385 7.26414 26.9261 9.55169 26.9261 12.3634C26.9261 15.1752 24.6385 17.4627 21.8268 17.4627C19.015 17.4627 16.7275 15.1752 16.7275 12.3634ZM23.5265 12.3634C23.5265 11.4262 22.764 10.6637 21.8268 10.6637C20.8895 10.6637 20.127 11.4262 20.127 12.3634C20.127 13.3007 20.8895 14.0632 21.8268 14.0632C22.764 14.0632 23.5265 13.3007 23.5265 12.3634ZM23.0287 30.563C22.6968 30.8949 22.2618 31.0608 21.8268 31.0608C21.3917 31.0608 20.9567 30.8949 20.6249 30.563C20.5173 30.4554 17.96 27.8881 15.3677 24.4318C11.7585 19.6195 9.92841 15.5591 9.92841 12.3634C9.92841 5.80269 15.266 0.465088 21.8268 0.465088C28.3875 0.465088 33.7251 5.80269 33.7251 12.3634C33.7251 15.5591 31.8951 19.6195 28.2859 24.4318C25.6936 27.8881 23.1363 30.4554 23.0287 30.563ZM21.8268 3.86462C17.1405 3.86462 13.3279 7.67719 13.3279 12.3634C13.3279 16.7259 18.6774 23.4657 21.8268 26.8982C24.9762 23.4657 30.3256 16.7259 30.3256 12.3634C30.3256 7.67719 26.513 3.86462 21.8268 3.86462Z" fill="#B32079"/>
</g>
</g>
</g>
</g>
<defs>
<clipPath id="clip0_165_244">
<rect width="43.5142" height="43.5142" fill="white" transform="matrix(-1 0 0 1 43.584 0.465088)"/>
</clipPath>
</defs>
</svg>
