<svg width="73" height="75" viewBox="0 0 73 75" fill="none" xmlns="http://www.w3.org/2000/svg">
<path id="Vector" d="M72.3403 38.0852H49.3781L49.5639 32.1475C49.5639 28.7336 48.6277 25.6415 46.7946 22.9568C45.0615 20.4152 41.8026 19.1283 37.1144 19.1283C33.1266 19.1283 30.1285 20.1936 28.1954 22.2955C26.2086 24.4618 25.2438 27.2608 25.2438 30.857C25.2438 34.0743 26.0728 36.8733 27.7094 39.1719C29.4532 41.6206 32.0688 44.4482 35.4957 47.5904C39.0368 50.9364 41.6847 53.789 43.3677 56.0697C45.1758 58.5148 46.0906 61.5105 46.0906 64.9815V74.6905H23.7644V68.7743C23.7644 67.1335 23.2248 65.7394 22.1171 64.5061C20.8557 63.1048 18.7689 61.1816 15.9317 58.8187C12.6978 56.2699 10.0071 53.9034 7.93813 51.7836C5.80842 49.603 3.93599 46.7611 2.37444 43.3365C0.802177 39.8833 0.00175476 35.783 0.00175476 31.1502C0.00175476 25.6129 1.35604 20.4009 4.02532 15.6608C6.70532 10.9064 10.6717 7.06354 15.8102 4.23949C20.9343 1.42617 27.0698 0.00341797 34.0485 0.00341797H37.2538C44.136 0.00341797 50.3715 1.50124 55.7851 4.45755C61.2058 7.42101 65.4581 11.3747 68.4239 16.2006C71.4005 21.0444 72.9085 26.1705 72.9085 31.4397C72.9085 32.4692 72.762 34.2816 72.4618 36.9734L72.3367 38.0852H72.3403ZM66.2942 17.5089C63.5606 13.0548 59.6228 9.40142 54.588 6.64887C49.5496 3.89631 43.7179 2.49859 37.2573 2.49859H34.052C27.4986 2.49859 21.7634 3.82124 17.0144 6.42723C12.2904 9.0225 8.65279 12.54 6.20506 16.8834C3.75018 21.2445 2.50308 26.0418 2.50308 31.143C2.50308 35.4148 3.2249 39.1647 4.65066 42.2891C6.09071 45.4491 7.79877 48.0551 9.72837 50.0284C11.7223 52.0696 14.3272 54.3645 17.5039 56.8669C20.4984 59.3656 22.6174 61.3138 23.9717 62.826C25.4903 64.5132 26.2622 66.5115 26.2622 68.7672V72.1811H43.5857V64.9744C43.5857 62.0109 42.8567 59.5837 41.3524 57.5496C39.7551 55.3869 37.2073 52.6451 33.7876 49.4171C30.2464 46.1677 27.5128 43.2078 25.669 40.6161C23.7251 37.8814 22.7424 34.5962 22.7424 30.8499C22.7424 26.6567 23.9574 23.2107 26.3515 20.5975C28.7778 17.9594 32.3976 16.6188 37.1144 16.6188C42.6817 16.6188 46.6338 18.2739 48.8599 21.5377C50.9896 24.6513 52.0652 28.226 52.0652 32.1618L51.958 35.5793H70.0963C70.3035 33.6096 70.4071 32.219 70.4071 31.4326C70.4071 26.6353 69.0243 21.9488 66.2907 17.5054L66.2942 17.5089Z" fill="white"/>
</svg>
