<svg width="138" height="142" viewBox="0 0 138 142" fill="none" xmlns="http://www.w3.org/2000/svg">
<path id="Vector" d="M136.925 72.4035H93.461L93.8127 61.1144C93.8127 54.6237 92.0406 48.7447 88.5708 43.6405C85.2904 38.8082 79.1219 36.3615 70.2479 36.3615C62.6996 36.3615 57.0248 38.3868 53.3657 42.3832C49.6051 46.5019 47.7789 51.8236 47.7789 58.6609C47.7789 64.7778 49.348 70.0995 52.4458 74.4696C55.7465 79.1253 60.6975 84.5013 67.1839 90.4755C73.8868 96.837 78.8987 102.261 82.0844 106.597C85.5068 111.246 87.2383 116.941 87.2383 123.541V142H44.9787V130.752C44.9787 127.632 43.9574 124.981 41.8606 122.637C39.473 119.972 35.523 116.316 30.1526 111.823C24.0315 106.977 18.9384 102.478 15.0222 98.4478C10.991 94.3019 7.44685 88.8987 4.4911 82.3876C1.51508 75.8221 0 68.0265 0 59.2182C0 48.6904 2.56345 38.781 7.61594 29.7688C12.6887 20.7294 20.1964 13.4232 29.9227 8.05389C39.6218 2.70502 51.2351 0 64.4446 0H70.5117C83.5386 0 95.3413 2.84775 105.588 8.46848C115.849 14.1028 123.898 21.6198 129.512 30.7951C135.146 40.0044 138 49.7506 138 59.7687C138 61.7261 137.723 65.172 137.155 70.2898L136.918 72.4035H136.925ZM125.48 33.2826C120.306 24.8141 112.853 17.8681 103.322 12.6348C93.7856 7.40143 82.7472 4.74398 70.5185 4.74398H64.4514C52.0468 4.74398 41.191 7.2587 32.202 12.2134C23.2604 17.1477 16.375 23.8354 11.7418 32.0932C7.09514 40.385 4.7346 49.506 4.7346 59.2046C4.7346 67.3265 6.10088 74.456 8.79959 80.3962C11.5254 86.4043 14.7584 91.359 18.4108 95.1107C22.185 98.9915 27.1157 103.355 33.1287 108.112C38.7966 112.863 42.8075 116.567 45.371 119.442C48.2456 122.65 49.7065 126.45 49.7065 130.738V137.229H82.497V123.527C82.497 117.893 81.1172 113.278 78.2697 109.411C75.2463 105.299 70.4238 100.086 63.9509 93.9485C57.248 87.7705 52.0738 82.1429 48.5837 77.2154C44.9043 72.0161 43.0443 65.7701 43.0443 58.6473C43.0443 50.675 45.3439 44.1231 49.8756 39.1548C54.4682 34.139 61.3198 31.5903 70.2479 31.5903C80.7858 31.5903 88.2664 34.7371 92.4802 40.9423C96.5114 46.8621 98.5473 53.6586 98.5473 61.1416L98.3444 67.6391H132.677C133.069 63.8942 133.265 61.2504 133.265 59.7551C133.265 50.6342 130.648 41.7239 125.474 33.2758L125.48 33.2826Z" fill="white"/>
</svg>
