<svg width="52" height="52" viewBox="0 0 52 52" fill="none" xmlns="http://www.w3.org/2000/svg">
<g id="Whatsapp" clip-path="url(#clip0_165_383)">
<g id="Group">
<path id="Vector" d="M52 0H0V52H52V0Z" fill="#1BD741"/>
<g id="Group_2">
<path id="Vector_2" d="M7.81543 44.2044L10.3625 35.1579C8.7246 32.3752 7.86221 29.2092 7.86221 25.9569C7.86221 15.9427 16.0094 7.79553 26.0235 7.79553C36.0377 7.79553 44.1848 15.9427 44.1848 25.9569C44.1848 35.9711 36.0377 44.1182 26.0235 44.1182C22.9032 44.1182 19.8478 43.3195 17.1448 41.8028L7.81543 44.2044ZM17.6217 38.4988L18.1776 38.8382C20.5343 40.277 23.2474 41.0374 26.0235 41.0374C34.339 41.0374 41.104 34.2723 41.104 25.9569C41.104 17.6414 34.339 10.8763 26.0235 10.8763C17.7081 10.8763 10.943 17.6414 10.943 25.9569C10.943 28.8543 11.7665 31.6679 13.3242 34.0936L13.6985 34.6766L12.2318 39.8863L17.6217 38.4988Z" fill="white"/>
<path id="Vector_3" d="M20.9217 17.504L19.7433 17.4398C19.3731 17.4196 19.0101 17.5432 18.7303 17.7863C18.159 18.2824 17.2455 19.2415 16.9649 20.4914C16.5465 22.3551 17.1931 24.6371 18.8666 26.9192C20.5402 29.2012 23.6589 32.8525 29.1738 34.4119C30.951 34.9144 32.349 34.5757 33.4276 33.8857C34.2819 33.3392 34.8707 32.4621 35.083 31.4706L35.2711 30.5918C35.3309 30.3124 35.1891 30.029 34.9296 29.9094L30.9469 28.0736C30.6883 27.9545 30.3817 28.0298 30.2078 28.2552L28.6443 30.2821C28.5262 30.4352 28.324 30.4959 28.1414 30.4318C27.0707 30.0555 23.484 28.5533 21.516 24.7624C21.4306 24.598 21.4518 24.3984 21.5729 24.2582L23.0672 22.5295C23.2199 22.353 23.2584 22.1048 23.1667 21.8903L21.4499 17.8738C21.3585 17.66 21.1537 17.5167 20.9217 17.504Z" fill="white"/>
</g>
</g>
</g>
<defs>
<clipPath id="clip0_165_383">
<rect width="52" height="52" fill="white"/>
</clipPath>
</defs>
</svg>
